<svg version="1.1"  xmlns="http://www.w3.org/2000/svg" xmlns:xlink="http://www.w3.org/1999/xlink" x="0px" y="0px"
	 width="20px" height="20px" viewBox="0 0 20 20" style="enable-background:new 0 0 20 20;" xml:space="preserve">
<style type="text/css">
	.st0{fill:none;}
	.st1{opacity:0;}
</style>
<rect  class="st0" width="20" height="20"/>
<path  d="M10,1c-5,0-9,4-9,9s4,9,9,9s9-4,9-9S15,1,10,1z M9.2,5h1.5v7H9.2V5z M10,16c-0.6,0-1-0.4-1-1s0.4-1,1-1
	s1,0.4,1,1S10.6,16,10,16z"/>
<path  class="st1" d="M9.2,5h1.5v7H9.2V5z M10,16c-0.6,0-1-0.4-1-1s0.4-1,1-1s1,0.4,1,1S10.6,16,10,16z"/>
</svg>
