<svg  xmlns="http://www.w3.org/2000/svg" width="32" height="32" viewBox="0 0 32 32">
  <defs>
    <style>
      .cls-1 {
        fill: none;
      }
    </style>
  </defs>
  <path d="M16,2A14,14,0,1,0,30,16,14,14,0,0,0,16,2ZM8,18a2,2,0,1,1,2-2A2,2,0,0,1,8,18Zm8,0a2,2,0,1,1,2-2A2,2,0,0,1,16,18Zm8,0a2,2,0,1,1,2-2A2,2,0,0,1,24,18Z" transform="translate(0 0)"/>
  <circle  data-name="&lt;inner-path&gt;"  cx="8" cy="16" r="2"/>
  <circle  data-name="&lt;inner-path&gt;"  cx="16" cy="16" r="2"/>
  <circle  data-name="&lt;inner-path&gt;"  cx="24" cy="16" r="2"/>
  
</svg>
