<svg version="1.1"  xmlns="http://www.w3.org/2000/svg" xmlns:xlink="http://www.w3.org/1999/xlink" x="0px" y="0px"
	 width="16px" height="16px" viewBox="0 0 16 16" style="enable-background:new 0 0 16 16;" xml:space="preserve">
<style type="text/css">
	.st0{fill:none;}
</style>
<path d="M8,1C4.1,1,1,4.1,1,8s3.1,7,7,7s7-3.1,7-7S11.9,1,8,1z M11,10c0,0.6-0.4,1-1,1H6c-0.6,0-1-0.4-1-1V6c0-0.6,0.4-1,1-1h4
	c0.6,0,1,0.4,1,1V10z"/>
<rect x="6" y="6" width="4" height="4"/>
<rect  class="st0" width="16" height="16"/>
</svg>
