<svg version="1.1"  xmlns="http://www.w3.org/2000/svg" xmlns:xlink="http://www.w3.org/1999/xlink" x="0px" y="0px"
	 width="16px" height="16px" viewBox="0 0 16 16" style="enable-background:new 0 0 16 16;" xml:space="preserve">
<style type="text/css">
	.st0{fill:none;}
</style>
<path d="M8,2c3.3,0,6,2.7,6,6s-2.7,6-6,6s-6-2.7-6-6S4.7,2,8,2 M8,1C4.1,1,1,4.1,1,8s3.1,7,7,7s7-3.1,7-7S11.9,1,8,1z"/>
<path d="M10,6v4H6V6H10 M10,5H6C5.4,5,5,5.4,5,6v4c0,0.6,0.4,1,1,1h4c0.6,0,1-0.4,1-1V6C11,5.4,10.6,5,10,5z"/>
<rect  class="st0" width="16" height="16"/>
</svg>
